<svg width="506" height="120" viewBox="0 0 506 120" fill="none" xmlns="http://www.w3.org/2000/svg">
<path d="M135.948 5.77761C137.282 5.14802 138.449 4.75915 139.449 4.61101C140.487 4.42584 141.487 4.33325 142.451 4.33325C143.451 4.33325 144.452 4.42584 145.452 4.61101C146.453 4.75915 147.546 5.11099 148.731 5.66651C149.954 6.18499 151.047 6.87014 152.011 7.72194C152.974 8.53671 153.826 9.68479 154.567 11.1662C155.309 12.6105 155.772 14.2956 155.957 16.2214C155.957 17.0362 155.586 17.4436 154.845 17.4436H154.345C153.678 17.4436 153.308 17.1103 153.233 16.4436C153.048 14.8882 152.659 13.5179 152.066 12.3328C151.473 11.1477 150.788 10.2403 150.01 9.61072C149.232 8.98113 148.342 8.46264 147.342 8.05525C145.86 7.42566 144.47 7.11087 143.173 7.11087C141.913 7.11087 140.857 7.18494 140.005 7.33308C139.19 7.48122 138.264 7.79601 137.226 8.27746C136.189 8.75892 135.281 9.40703 134.503 10.2218C133.724 10.9995 133.057 12.1106 132.502 13.5549C131.983 14.9993 131.723 16.6659 131.723 18.5546V29.4429C131.723 31.3316 132.02 32.9982 132.613 34.4426C133.206 35.8869 133.91 37.0165 134.725 37.8313C135.577 38.609 136.559 39.2386 137.671 39.72C139.449 40.4978 141.117 40.8866 142.673 40.8866C144.229 40.8866 145.545 40.757 146.619 40.4978C147.731 40.2015 148.824 39.7015 149.899 38.9979C152.196 37.5535 153.345 34.8685 153.345 30.9428C153.345 30.3132 153.437 29.9058 153.623 29.7206C153.845 29.5355 154.123 29.4429 154.456 29.4429H154.901C155.642 29.4429 156.013 29.8132 156.013 30.5539C156.013 32.813 155.642 34.7944 154.901 36.498C154.197 38.2016 153.363 39.4978 152.4 40.3867C151.436 41.2385 150.306 41.9236 149.009 42.4421C147.008 43.2198 145.248 43.6087 143.729 43.6087C142.247 43.6087 140.95 43.5161 139.838 43.3309C138.764 43.1458 137.541 42.7384 136.17 42.1088C134.836 41.4792 133.65 40.6829 132.613 39.72C131.612 38.7571 130.76 37.4054 130.056 35.6647C129.352 33.8871 129 31.8687 129 29.6095V18.3324C129 15.9992 129.333 13.9438 130 12.1661C130.704 10.3884 131.538 9.03668 132.502 8.11081C133.502 7.1479 134.651 6.37017 135.948 5.77761Z" fill="black"/>
<path d="M167.877 5.99982C169.211 5.40726 170.378 5.03692 171.378 4.88878C172.379 4.74064 173.398 4.66657 174.435 4.66657C175.51 4.66657 176.566 4.75915 177.603 4.94433C178.641 5.09247 179.808 5.46282 181.105 6.05537C182.439 6.64793 183.588 7.42566 184.551 8.38857C185.514 9.31444 186.33 10.6477 186.997 12.3883C187.664 14.0919 187.997 16.0733 187.997 18.3324V29.6095C187.997 31.9427 187.645 33.9982 186.941 35.7758C186.274 37.5535 185.44 38.9238 184.44 39.8867C183.476 40.8496 182.346 41.6273 181.049 42.2199C178.974 43.1458 176.788 43.6087 174.491 43.6087C172.082 43.6087 170.026 43.2013 168.321 42.3865C166.654 41.5718 165.338 40.6829 164.375 39.72C163.412 38.7571 162.596 37.4054 161.929 35.6647C161.262 33.8871 160.929 31.8687 160.929 29.6095V18.3324C160.929 15.9992 161.262 13.9623 161.929 12.2217C162.633 10.481 163.467 9.14778 164.431 8.22191C165.394 7.29604 166.543 6.55534 167.877 5.99982ZM179.66 8.49967C178.622 8.01822 177.696 7.72194 176.881 7.61084C176.103 7.4627 175.287 7.38863 174.435 7.38863C173.62 7.38863 172.805 7.4627 171.99 7.61084C171.174 7.72194 170.23 8.01822 169.155 8.49967C168.117 8.94409 167.21 9.55517 166.431 10.3329C165.653 11.0736 164.986 12.1661 164.431 13.6105C163.912 15.0178 163.652 16.6659 163.652 18.5546V29.4429C163.652 31.3316 163.912 32.9982 164.431 34.4426C164.986 35.8869 165.653 37.0165 166.431 37.8313C167.247 38.609 168.173 39.2386 169.211 39.72C170.248 40.2015 171.174 40.5163 171.99 40.6644C172.842 40.8126 173.676 40.8866 174.491 40.8866C175.306 40.8866 176.121 40.8126 176.936 40.6644C177.789 40.5163 178.733 40.2015 179.771 39.72C180.809 39.2386 181.716 38.609 182.494 37.8313C183.273 37.0165 183.921 35.8869 184.44 34.4426C184.996 32.9982 185.274 31.3316 185.274 29.4429V18.5546C185.274 16.6659 184.996 15.0178 184.44 13.6105C183.884 12.1661 183.217 11.0736 182.439 10.3329C181.661 9.55517 180.734 8.94409 179.66 8.49967Z" fill="black"/>
<path d="M196.804 4.55546C197.804 4.55546 198.582 4.99988 199.138 5.88872C206.29 17.7399 212.867 29.017 218.869 39.72V5.77761C218.869 5.48133 218.962 5.22209 219.147 4.99988C219.37 4.77767 219.648 4.66657 219.981 4.66657H220.537C220.87 4.66657 221.13 4.77767 221.315 4.99988C221.537 5.22209 221.649 5.48133 221.649 5.77761V41.4977C221.649 42.2384 221.426 42.7939 220.982 43.1643C220.574 43.4976 219.981 43.6642 219.203 43.6642C218.425 43.6642 217.776 43.2569 217.258 42.4421L197.526 8.61078V42.4421C197.526 42.7384 197.415 42.9976 197.193 43.2198C196.97 43.442 196.711 43.5531 196.415 43.5531H195.803C195.507 43.5531 195.247 43.442 195.025 43.2198C194.84 42.9976 194.747 42.7384 194.747 42.4421V6.83311C194.747 5.31468 195.433 4.55546 196.804 4.55546Z" fill="black"/>
<path d="M265.814 4.66657H266.425C266.833 4.66657 267.111 4.79619 267.259 5.05543C267.444 5.27764 267.537 5.48133 267.537 5.66651C267.537 5.81465 267.519 5.94427 267.482 6.05537L257.532 41.7755C257.162 42.9976 256.384 43.6087 255.198 43.6087C254.049 43.6087 253.308 42.9976 252.975 41.7755L246.138 17.3325L239.302 41.8866C238.894 43.0347 238.135 43.6087 237.023 43.6087C235.948 43.6087 235.207 43.0347 234.8 41.8866L224.295 6.11093C224.258 5.96279 224.239 5.79613 224.239 5.61096C224.239 5.42578 224.332 5.22209 224.517 4.99988C224.665 4.77767 224.943 4.66657 225.351 4.66657H225.907C226.351 4.66657 226.703 4.92581 226.963 5.4443L237.078 39.7756L244.248 14.166C244.545 13.129 245.193 12.6105 246.194 12.6105C247.231 12.6105 247.861 13.1475 248.084 14.2216C248.862 17.0362 250.047 21.2952 251.641 26.9986C253.271 32.6649 254.475 36.9054 255.254 39.72L264.758 5.49985C264.832 5.31468 264.962 5.1295 265.147 4.94433C265.369 4.75915 265.592 4.66657 265.814 4.66657Z" fill="black"/>
<path d="M282.063 6.11093C282.396 5.11099 283.1 4.61101 284.175 4.61101C285.287 4.61101 286.028 5.1295 286.398 6.16648L299.182 42.0532C299.219 42.1643 299.238 42.294 299.238 42.4421C299.238 43.1828 298.867 43.5531 298.126 43.5531H297.459C296.977 43.5531 296.625 43.3124 296.403 42.831L284.286 8.33302L272.114 42.831C271.892 43.3124 271.54 43.5531 271.058 43.5531H270.391C269.65 43.5531 269.279 43.1828 269.279 42.4421C269.279 42.294 269.298 42.1643 269.335 42.0532L282.063 6.11093ZM279.451 26.4431H289.066C289.363 26.4431 289.622 26.5542 289.844 26.7764C290.067 26.9615 290.178 27.2208 290.178 27.5541V28.0541C290.178 28.3874 290.067 28.6651 289.844 28.8874C289.622 29.0725 289.363 29.1651 289.066 29.1651H279.451C278.747 29.1651 278.395 28.7948 278.395 28.0541V27.5541C278.395 26.8134 278.747 26.4431 279.451 26.4431Z" fill="black"/>
<path d="M322.854 4.66657H323.465C323.91 4.66657 324.206 4.81471 324.354 5.11099C324.503 5.37023 324.577 5.59244 324.577 5.77761C324.577 5.96279 324.521 6.14796 324.41 6.33314V6.27758L315.017 23.3877C314.72 23.8321 314.516 24.1099 314.405 24.221V42.4421C314.405 42.7384 314.294 42.9976 314.072 43.2198C313.849 43.442 313.59 43.5531 313.294 43.5531H312.738C312.441 43.5531 312.182 43.442 311.96 43.2198C311.737 42.9976 311.626 42.7384 311.626 42.4421V24.1654C311.441 23.9802 311.274 23.758 311.126 23.4988L301.01 6.33314C300.899 6.14796 300.843 5.96279 300.843 5.77761C300.843 5.59244 300.917 5.37023 301.066 5.11099C301.214 4.81471 301.51 4.66657 301.955 4.66657H302.622C302.993 4.66657 303.308 4.83322 303.567 5.16654L313.016 21.3878L321.964 4.99988C322.113 4.77767 322.409 4.66657 322.854 4.66657Z" fill="black"/>
<path d="M328.831 3H329.387C330.091 3 330.443 3.35183 330.443 4.05549V11.8328C330.443 12.5365 330.091 12.8883 329.387 12.8883H328.831C328.535 12.8883 328.275 12.7957 328.053 12.6105C327.831 12.3883 327.72 12.1291 327.72 11.8328V4.05549C327.72 3.75921 327.831 3.51849 328.053 3.33331C328.275 3.1111 328.535 3 328.831 3Z" fill="black"/>
<path d="M337.76 13.4994C337.76 11.0921 338.742 8.99964 340.706 7.22197C342.67 5.4443 345.338 4.55546 348.71 4.55546C352.119 4.55546 354.972 5.46282 357.269 7.27752C359.604 9.05519 360.845 11.7217 360.993 15.277C360.993 15.5733 360.882 15.8511 360.66 16.1103C360.438 16.3325 360.178 16.4436 359.882 16.4436H359.326C359.067 16.4436 358.826 16.3511 358.603 16.1659C358.381 15.9437 358.251 15.6844 358.214 15.3882C358.103 12.5735 357.158 10.5366 355.38 9.2774C353.601 7.98119 351.47 7.33308 348.988 7.33308C346.32 7.33308 344.245 7.94415 342.763 9.1663C341.28 10.3884 340.539 11.9069 340.539 13.7216C340.539 15.4993 341.058 16.9251 342.096 17.9991C343.541 19.4435 346.227 20.9249 350.155 22.4433C354.824 24.295 357.936 26.1468 359.493 27.9985C360.678 29.4058 361.271 31.4242 361.271 34.0537C361.271 36.6832 360.197 38.9423 358.048 40.8311C355.935 42.6828 352.915 43.6087 348.988 43.6087C346.06 43.6087 343.3 42.8124 340.706 41.2199C339.335 40.3681 338.205 39.183 337.316 37.6646C336.463 36.1091 336 34.3315 335.926 32.3316C335.926 31.5539 336.297 31.165 337.038 31.165H337.538C338.205 31.165 338.576 31.5168 338.65 32.2205C338.724 33.85 339.131 35.2759 339.872 36.498C340.613 37.6831 341.54 38.572 342.651 39.1645C344.801 40.3126 347.154 40.8866 349.71 40.8866C352.304 40.8866 354.416 40.22 356.047 38.8868C357.714 37.5165 358.548 35.8129 358.548 33.7759C358.548 31.702 357.881 30.1095 356.547 28.9985C355.472 28.1096 354.305 27.3504 353.045 26.7208C351.415 25.9431 348.858 24.8506 345.375 23.4432C342.707 22.2581 340.762 20.9063 339.539 19.3879C338.353 17.8324 337.76 15.8696 337.76 13.4994Z" fill="black"/>
<path d="M137.094 77.44C138.595 76.7317 139.908 76.2943 141.033 76.1276C142.201 75.9193 143.326 75.8151 144.41 75.8151C145.535 75.8151 146.661 75.9193 147.787 76.1276C148.912 76.2943 150.142 76.6901 151.476 77.315C152.851 77.8983 154.081 78.6691 155.165 79.6274C156.249 80.544 157.208 81.8356 158.041 83.5022C158.875 85.1271 159.396 87.0228 159.605 89.1893C159.605 90.1059 159.188 90.5642 158.354 90.5642H157.791C157.041 90.5642 156.624 90.1893 156.541 89.4393C156.332 87.6894 155.894 86.1478 155.227 84.8146C154.561 83.4813 153.789 82.4606 152.914 81.7523C152.038 81.044 151.038 80.4607 149.913 80.0024C148.245 79.2941 146.682 78.9399 145.223 78.9399C143.805 78.9399 142.617 79.0233 141.659 79.1899C140.742 79.3566 139.699 79.7107 138.532 80.2523C137.365 80.794 136.344 81.5231 135.468 82.4397C134.593 83.3147 133.843 84.5646 133.217 86.1895C132.634 87.8144 132.342 89.6893 132.342 91.8142V104.063C132.342 106.188 132.654 108.063 133.28 109.688C133.905 111.313 134.655 112.584 135.531 113.5C136.406 114.375 137.428 115.084 138.595 115.625C139.804 116.167 140.867 116.521 141.784 116.688C142.701 116.854 143.618 116.938 144.535 116.938C145.452 116.938 146.369 116.875 147.286 116.75C148.203 116.584 149.246 116.25 150.413 115.75C151.58 115.209 152.601 114.521 153.477 113.688C154.352 112.813 155.082 111.605 155.665 110.063C156.29 108.521 156.603 106.73 156.603 104.688V101.064H146.286C145.452 101.064 145.035 100.647 145.035 99.8137V99.2512C145.035 98.9179 145.139 98.6263 145.348 98.3763C145.598 98.1263 145.911 98.0013 146.286 98.0013H157.166C158.833 98.0013 159.667 98.8971 159.667 100.689V104.751C159.667 107.292 159.271 109.542 158.479 111.5C157.729 113.417 156.812 114.896 155.728 115.938C154.644 116.979 153.372 117.813 151.913 118.438C149.537 119.479 147.078 120 144.535 120C141.867 120 139.574 119.542 137.657 118.625C135.781 117.708 134.28 116.709 133.155 115.625C132.071 114.542 131.154 113.021 130.403 111.063C129.653 109.063 129.278 106.792 129.278 104.251V91.5642C129.278 88.9393 129.653 86.627 130.403 84.6271C131.195 82.6272 132.133 81.1065 133.217 80.0649C134.343 78.9816 135.635 78.1067 137.094 77.44Z" fill="black"/>
<path d="M178.492 77.815C178.867 76.6901 179.659 76.1276 180.868 76.1276C182.118 76.1276 182.952 76.7109 183.369 77.8775L197.751 118.25C197.792 118.375 197.813 118.521 197.813 118.688C197.813 119.521 197.396 119.937 196.563 119.937H195.812C195.27 119.937 194.874 119.667 194.624 119.125L180.993 80.3148L167.299 119.125C167.049 119.667 166.653 119.937 166.111 119.937H165.361C164.527 119.937 164.11 119.521 164.11 118.688C164.11 118.521 164.131 118.375 164.173 118.25L178.492 77.815ZM175.553 100.689H186.37C186.704 100.689 186.996 100.814 187.246 101.064C187.496 101.272 187.621 101.564 187.621 101.939V102.501C187.621 102.876 187.496 103.188 187.246 103.438C186.996 103.647 186.704 103.751 186.37 103.751H175.553C174.761 103.751 174.365 103.334 174.365 102.501V101.939C174.365 101.105 174.761 100.689 175.553 100.689Z" fill="black"/>
<path d="M233.51 76.0026C234.177 76.0026 234.761 76.2318 235.261 76.6901C235.762 77.1067 236.012 77.7733 236.012 78.6899V118.688C236.012 119.021 235.887 119.313 235.636 119.563C235.428 119.812 235.136 119.937 234.761 119.937H234.198C233.823 119.937 233.51 119.812 233.26 119.563C233.052 119.313 232.948 119.021 232.948 118.688V81.5023L222.068 108.376C221.609 109.459 220.859 110.063 219.817 110.188C218.608 110.188 217.753 109.605 217.253 108.438L205.748 81.2523V118.688C205.748 119.021 205.623 119.313 205.372 119.563C205.122 119.812 204.83 119.937 204.497 119.937H203.872C203.538 119.937 203.246 119.812 202.996 119.563C202.788 119.313 202.684 119.021 202.684 118.688V78.6899C202.684 76.8984 203.497 76.0026 205.122 76.0026C206.248 76.0026 207.082 76.6276 207.623 77.8775L219.629 106.188L231.009 77.8775C231.593 76.6276 232.427 76.0026 233.51 76.0026Z" fill="black"/>
<path d="M246.916 76.1901H268.739C269.072 76.1901 269.364 76.3151 269.614 76.5651C269.864 76.8151 269.989 77.1067 269.989 77.44V78.0025C269.989 78.3775 269.864 78.6899 269.614 78.9399C269.364 79.1483 269.072 79.2524 268.739 79.2524H247.541V116.875H268.739C269.072 116.875 269.364 117 269.614 117.25C269.864 117.458 269.989 117.75 269.989 118.125V118.688C269.989 119.021 269.864 119.313 269.614 119.563C269.364 119.812 269.072 119.937 268.739 119.937H246.854C245.853 119.937 245.186 119.729 244.853 119.313C244.561 118.854 244.415 118.229 244.415 117.438V78.6274C244.415 77.7942 244.603 77.19 244.978 76.815C245.353 76.3984 245.999 76.1901 246.916 76.1901ZM251.293 95.6889H264.674C265.05 95.6889 265.341 95.8139 265.55 96.0639C265.8 96.3139 265.925 96.6055 265.925 96.9389V97.5013C265.925 98.3346 265.508 98.7513 264.674 98.7513H251.293C250.459 98.7513 250.043 98.3346 250.043 97.5013V96.9389C250.043 96.6055 250.147 96.3139 250.355 96.0639C250.605 95.8139 250.918 95.6889 251.293 95.6889Z" fill="black"/>
<path d="M314.01 77.69C315.511 77.0234 316.824 76.6067 317.949 76.4401C319.075 76.2734 320.221 76.1901 321.388 76.1901C322.597 76.1901 323.785 76.2943 324.952 76.5026C326.12 76.6692 327.433 77.0859 328.892 77.7525C330.392 78.4191 331.685 79.2941 332.769 80.3773C333.852 81.4189 334.77 82.9189 335.52 84.8771C336.27 86.7936 336.645 89.0227 336.645 91.5642V104.251C336.645 106.876 336.249 109.188 335.457 111.188C334.707 113.188 333.769 114.729 332.644 115.813C331.56 116.896 330.288 117.771 328.829 118.438C326.495 119.479 324.035 120 321.451 120C318.741 120 316.428 119.542 314.51 118.625C312.634 117.708 311.154 116.709 310.07 115.625C308.987 114.542 308.07 113.021 307.319 111.063C306.569 109.063 306.194 106.792 306.194 104.251V91.5642C306.194 88.9393 306.569 86.6478 307.319 84.6896C308.111 82.7314 309.049 81.2315 310.133 80.1899C311.217 79.1483 312.509 78.315 314.01 77.69ZM327.266 80.5023C326.099 79.9607 325.057 79.6274 324.14 79.5024C323.264 79.3357 322.347 79.2524 321.388 79.2524C320.471 79.2524 319.554 79.3357 318.637 79.5024C317.72 79.6274 316.657 79.9607 315.448 80.5023C314.281 81.0023 313.259 81.6898 312.384 82.5647C311.509 83.398 310.758 84.6271 310.133 86.252C309.549 87.8352 309.258 89.6893 309.258 91.8142V104.063C309.258 106.188 309.549 108.063 310.133 109.688C310.758 111.313 311.509 112.584 312.384 113.5C313.301 114.375 314.343 115.084 315.511 115.625C316.678 116.167 317.72 116.521 318.637 116.688C319.596 116.854 320.534 116.938 321.451 116.938C322.368 116.938 323.285 116.854 324.202 116.688C325.161 116.521 326.224 116.167 327.391 115.625C328.558 115.084 329.58 114.375 330.455 113.5C331.33 112.584 332.06 111.313 332.644 109.688C333.269 108.063 333.581 106.188 333.581 104.063V91.8142C333.581 89.6893 333.269 87.8352 332.644 86.252C332.018 84.6271 331.268 83.398 330.392 82.5647C329.517 81.6898 328.475 81.0023 327.266 80.5023Z" fill="black"/>
<path d="M347.178 76.1901H368C368.375 76.1901 368.667 76.3151 368.876 76.5651C369.126 76.8151 369.251 77.1067 369.251 77.44V78.0025C369.251 78.8358 368.834 79.2524 368 79.2524H347.928V118.688C347.928 119.021 347.803 119.313 347.553 119.563C347.345 119.812 347.053 119.937 346.678 119.937H346.053C345.677 119.937 345.365 119.812 345.115 119.563C344.906 119.313 344.802 119.021 344.802 118.688V78.6899C344.802 77.8983 344.948 77.2942 345.24 76.8776C345.531 76.4192 346.178 76.1901 347.178 76.1901ZM350.43 95.6889H364.499C364.832 95.6889 365.124 95.8139 365.374 96.0639C365.624 96.3139 365.749 96.6055 365.749 96.9389V97.5013C365.749 97.8763 365.624 98.1888 365.374 98.4388C365.124 98.6471 364.832 98.7513 364.499 98.7513H350.43C349.638 98.7513 349.242 98.3346 349.242 97.5013V96.9389C349.242 96.6055 349.346 96.3139 349.554 96.0639C349.804 95.8139 350.096 95.6889 350.43 95.6889Z" fill="black"/>
<path d="M406.979 76.1901H407.605C407.938 76.1901 408.23 76.3151 408.48 76.5651C408.73 76.8151 408.855 77.1067 408.855 77.44V116.875H429.74C430.532 116.875 430.928 117.292 430.928 118.125V118.688C430.928 119.021 430.803 119.313 430.553 119.563C430.344 119.812 430.073 119.937 429.74 119.937H408.292C406.583 119.937 405.729 119.042 405.729 117.25V77.44C405.729 77.1067 405.854 76.8151 406.104 76.5651C406.354 76.3151 406.646 76.1901 406.979 76.1901Z" fill="black"/>
<path d="M439.621 76.1901H440.184C440.517 76.1901 440.809 76.3151 441.059 76.5651C441.309 76.8151 441.434 77.1067 441.434 77.44V118.688C441.434 119.021 441.309 119.313 441.059 119.563C440.809 119.812 440.517 119.937 440.184 119.937H439.621C439.246 119.937 438.933 119.812 438.683 119.563C438.475 119.313 438.37 119.021 438.37 118.688V77.44C438.37 77.1067 438.475 76.8151 438.683 76.5651C438.933 76.3151 439.246 76.1901 439.621 76.1901Z" fill="black"/>
<path d="M452.452 76.1901H473.274C473.649 76.1901 473.941 76.3151 474.149 76.5651C474.399 76.8151 474.524 77.1067 474.524 77.44V78.0025C474.524 78.8358 474.108 79.2524 473.274 79.2524H453.202V118.688C453.202 119.021 453.077 119.313 452.827 119.563C452.618 119.812 452.327 119.937 451.951 119.937H451.326C450.951 119.937 450.638 119.812 450.388 119.563C450.18 119.313 450.076 119.021 450.076 118.688V78.6899C450.076 77.8983 450.221 77.2942 450.513 76.8776C450.805 76.4192 451.451 76.1901 452.452 76.1901ZM455.703 95.6889H469.772C470.106 95.6889 470.398 95.8139 470.648 96.0639C470.898 96.3139 471.023 96.6055 471.023 96.9389V97.5013C471.023 97.8763 470.898 98.1888 470.648 98.4388C470.398 98.6471 470.106 98.7513 469.772 98.7513H455.703C454.911 98.7513 454.515 98.3346 454.515 97.5013V96.9389C454.515 96.6055 454.619 96.3139 454.828 96.0639C455.078 95.8139 455.37 95.6889 455.703 95.6889Z" fill="black"/>
<path d="M482.927 76.1901H504.749C505.083 76.1901 505.375 76.3151 505.625 76.5651C505.875 76.8151 506 77.1067 506 77.44V78.0025C506 78.3775 505.875 78.6899 505.625 78.9399C505.375 79.1483 505.083 79.2524 504.749 79.2524H483.552V116.875H504.749C505.083 116.875 505.375 117 505.625 117.25C505.875 117.458 506 117.75 506 118.125V118.688C506 119.021 505.875 119.313 505.625 119.563C505.375 119.812 505.083 119.937 504.749 119.937H482.864C481.864 119.937 481.197 119.729 480.863 119.313C480.572 118.854 480.426 118.229 480.426 117.438V78.6274C480.426 77.7942 480.613 77.19 480.988 76.815C481.364 76.3984 482.01 76.1901 482.927 76.1901ZM487.304 95.6889H500.685C501.06 95.6889 501.352 95.8139 501.56 96.0639C501.811 96.3139 501.936 96.6055 501.936 96.9389V97.5013C501.936 98.3346 501.519 98.7513 500.685 98.7513H487.304C486.47 98.7513 486.053 98.3346 486.053 97.5013V96.9389C486.053 96.6055 486.157 96.3139 486.366 96.0639C486.616 95.8139 486.929 95.6889 487.304 95.6889Z" fill="black"/>
<rect width="117.432" height="117.432" fill="black"/>
<rect x="41.4465" y="80.8207" width="34.5387" height="34.5387" fill="white"/>
<rect x="80.8206" y="41.4465" width="34.5387" height="34.5387" fill="white"/>
<rect x="2.07227" y="41.4465" width="34.5387" height="34.5387" fill="white"/>
<rect x="41.4465" y="2.07233" width="34.5387" height="34.5387" fill="white"/>
<rect x="2.07227" y="2.07233" width="34.5387" height="34.5387" fill="white"/>
</svg>
